<?xml version="1.0" standalone="no"?>
<!DOCTYPE svg PUBLIC "-//W3C//DTD SVG 20010904//EN"
 "http://www.w3.org/TR/2001/REC-SVG-20010904/DTD/svg10.dtd">
<svg version="1.0" xmlns="http://www.w3.org/2000/svg"
 width="250.000000pt" height="250.000000pt" viewBox="0 0 250.000000 250.000000"
 preserveAspectRatio="xMidYMid meet">
<metadata>
Created by potrace 1.10, written by Peter Selinger 2001-2011
</metadata>
<g transform="translate(0.000000,250.000000) scale(0.100000,-0.100000)"
fill="#000000" stroke="none">
<path d="M907 1920 c-188 -34 -421 -204 -528 -383 -96 -162 -124 -263 -124
-452 0 -82 6 -167 14 -205 19 -88 66 -201 119 -285 283 -445 708 -609 1141
-439 260 103 506 365 616 657 35 95 34 104 -23 128 -104 46 -336 130 -346 126
-6 -3 -22 -31 -35 -63 -67 -160 -204 -299 -348 -350 -87 -31 -204 -18 -281 32
-23 15 -23 15 40 66 35 29 81 68 103 88 23 19 63 53 90 75 27 22 73 60 101 85
28 25 133 114 233 199 105 89 178 158 175 165 -4 6 -32 49 -63 95 -138 207
-340 371 -536 436 -87 30 -257 42 -348 25z m347 -41 c92 -30 180 -78 257 -139
55 -43 185 -173 221 -221 40 -52 108 -153 108 -160 0 -3 -80 -73 -177 -155
-97 -82 -195 -165 -217 -185 -23 -19 -99 -84 -171 -144 -151 -126 -205 -173
-205 -180 0 -3 27 -19 61 -36 85 -42 171 -49 259 -19 89 30 194 103 256 178
45 55 110 170 128 225 5 16 8 16 53 -1 26 -11 111 -43 188 -72 77 -29 142 -55
144 -57 8 -6 -29 -105 -76 -200 -112 -230 -284 -409 -496 -513 -144 -71 -234
-93 -382 -93 -236 -1 -423 78 -618 261 -74 70 -191 231 -237 325 -62 129 -82
218 -83 377 -1 111 3 150 21 220 37 138 105 264 194 361 32 35 153 139 161
139 3 0 31 16 63 35 163 98 355 117 548 54z"/>
<path d="M966 1443 c-38 -10 -116 -65 -147 -104 -42 -54 -58 -101 -58 -174 1
-60 27 -156 45 -162 9 -3 212 162 349 283 l59 53 -27 29 c-58 61 -152 92 -221
75z m139 -33 c22 -10 51 -30 65 -45 l25 -27 -26 -21 c-15 -12 -53 -44 -85 -72
-32 -27 -105 -90 -163 -138 -57 -49 -107 -85 -111 -80 -16 16 -40 105 -40 146
1 80 61 179 136 223 79 46 119 49 199 14z"/>
</g>
</svg>
